# xmcd
#
# Track frame offsets:
#	150
#	10290
#	44718
#	66544
#	75947
#	94085
#	116541
#	139367
#	168421
#
# Disc length: 2608 seconds
#
# Revision: 2
# Processed by: cddbd v1.5.2PL0 Copyright (c) Steve Scherf et al.
# Submitted via: audiograbber 1.83.01
#
DISCID=790a2e09
DTITLE=Marvin Gaye - Live In Montreux 1980 - CD 1
DYEAR=1980
DGENRE=Soul
TTITLE0=Time (To Get It Together) (Live, 1980 Montreux)
TTITLE1=Got To Give It Up (Live, 1980 Montreux)
TTITLE2=A Funky Space Reincarnation (Live, 1980 Montreux)
TTITLE3=After The Dance (Live, 1980 Montreux)
TTITLE4=Come Get To This (Live, 1980 Montreux)
TTITLE5=Let's Get It On (Live, 1980 Montreux)
TTITLE6=After The Dance (Live, 1980 Montreux)
TTITLE7=Duet Medley (Live, 1980 Montreux)
TTITLE8=How Sweet It Is (Live, 1980 Montreux)
EXTD=
EXTT0=
EXTT1=
EXTT2=
EXTT3=
EXTT4=
EXTT5=
EXTT6=
EXTT7=
EXTT8=
PLAYORDER=
